<mxfile host="app.diagrams.net" agent="Mozilla/5.0 (X11; Linux x86_64; rv:139.0) Gecko/20100101 Firefox/139.0" version="28.0.7">
  <diagram name="Page-1" id="U__6J3OjNj3ATWUhCQXa">
    <mxGraphModel dx="872" dy="445" grid="1" gridSize="10" guides="1" tooltips="1" connect="1" arrows="1" fold="1" page="1" pageScale="1" pageWidth="850" pageHeight="1100" math="0" shadow="0">
      <root>
        <mxCell id="0" />
        <mxCell id="1" parent="0" />
        <mxCell id="9EL0KqJKeyZ95kQTjrNn-19" value="" style="edgeStyle=orthogonalEdgeStyle;rounded=0;orthogonalLoop=1;jettySize=auto;html=1;" edge="1" parent="1" source="9EL0KqJKeyZ95kQTjrNn-1" target="9EL0KqJKeyZ95kQTjrNn-2">
          <mxGeometry relative="1" as="geometry" />
        </mxCell>
        <mxCell id="9EL0KqJKeyZ95kQTjrNn-1" value="START" style="strokeWidth=2;html=1;shape=mxgraph.flowchart.terminator;whiteSpace=wrap;" vertex="1" parent="1">
          <mxGeometry x="380" y="10" width="90" height="30" as="geometry" />
        </mxCell>
        <mxCell id="9EL0KqJKeyZ95kQTjrNn-20" value="" style="edgeStyle=orthogonalEdgeStyle;rounded=0;orthogonalLoop=1;jettySize=auto;html=1;" edge="1" parent="1" source="9EL0KqJKeyZ95kQTjrNn-2" target="9EL0KqJKeyZ95kQTjrNn-4">
          <mxGeometry relative="1" as="geometry" />
        </mxCell>
        <mxCell id="9EL0KqJKeyZ95kQTjrNn-2" value="&lt;div&gt;Show&lt;/div&gt;&lt;div&gt;&quot;&lt;span lang=&quot;en&quot; class=&quot;Y2IQFc&quot;&gt;Enter value.&lt;/span&gt;&quot;&lt;/div&gt;" style="rounded=0;whiteSpace=wrap;html=1;" vertex="1" parent="1">
          <mxGeometry x="355" y="80" width="140" height="40" as="geometry" />
        </mxCell>
        <mxCell id="9EL0KqJKeyZ95kQTjrNn-21" value="" style="edgeStyle=orthogonalEdgeStyle;rounded=0;orthogonalLoop=1;jettySize=auto;html=1;" edge="1" parent="1" source="9EL0KqJKeyZ95kQTjrNn-4" target="9EL0KqJKeyZ95kQTjrNn-11">
          <mxGeometry relative="1" as="geometry" />
        </mxCell>
        <mxCell id="9EL0KqJKeyZ95kQTjrNn-4" value="รับค่าตัวเลขจากผู้ใช้ &quot;N&quot;" style="shape=parallelogram;perimeter=parallelogramPerimeter;whiteSpace=wrap;html=1;fixedSize=1;" vertex="1" parent="1">
          <mxGeometry x="353" y="160" width="145" height="40" as="geometry" />
        </mxCell>
        <mxCell id="9EL0KqJKeyZ95kQTjrNn-41" value="" style="edgeStyle=orthogonalEdgeStyle;rounded=0;orthogonalLoop=1;jettySize=auto;html=1;entryX=1;entryY=0.5;entryDx=0;entryDy=0;" edge="1" parent="1" source="9EL0KqJKeyZ95kQTjrNn-5" target="9EL0KqJKeyZ95kQTjrNn-65">
          <mxGeometry relative="1" as="geometry">
            <mxPoint x="180" y="455" as="targetPoint" />
          </mxGeometry>
        </mxCell>
        <mxCell id="9EL0KqJKeyZ95kQTjrNn-59" value="คี่" style="edgeLabel;html=1;align=center;verticalAlign=middle;resizable=0;points=[];" vertex="1" connectable="0" parent="9EL0KqJKeyZ95kQTjrNn-41">
          <mxGeometry x="-0.0112" relative="1" as="geometry">
            <mxPoint as="offset" />
          </mxGeometry>
        </mxCell>
        <mxCell id="9EL0KqJKeyZ95kQTjrNn-5" value="&lt;div&gt;ตรวจสอบว่า N&lt;/div&gt;&lt;div&gt;เป็นเลขคี่หรือเลขคู่&lt;/div&gt;" style="rhombus;whiteSpace=wrap;html=1;" vertex="1" parent="1">
          <mxGeometry x="358" y="400" width="135" height="110" as="geometry" />
        </mxCell>
        <mxCell id="9EL0KqJKeyZ95kQTjrNn-51" value="" style="edgeStyle=orthogonalEdgeStyle;rounded=0;orthogonalLoop=1;jettySize=auto;html=1;entryX=0;entryY=0.5;entryDx=0;entryDy=0;entryPerimeter=0;" edge="1" parent="1" source="9EL0KqJKeyZ95kQTjrNn-7" target="9EL0KqJKeyZ95kQTjrNn-18">
          <mxGeometry relative="1" as="geometry">
            <mxPoint x="330" y="550" as="targetPoint" />
          </mxGeometry>
        </mxCell>
        <mxCell id="9EL0KqJKeyZ95kQTjrNn-62" value="True" style="edgeLabel;html=1;align=center;verticalAlign=middle;resizable=0;points=[];" vertex="1" connectable="0" parent="9EL0KqJKeyZ95kQTjrNn-51">
          <mxGeometry x="-0.7786" y="1" relative="1" as="geometry">
            <mxPoint as="offset" />
          </mxGeometry>
        </mxCell>
        <mxCell id="9EL0KqJKeyZ95kQTjrNn-7" value="i &amp;lt;= N&amp;nbsp; หรือไม่" style="rhombus;whiteSpace=wrap;html=1;" vertex="1" parent="1">
          <mxGeometry x="110" y="560" width="120" height="100" as="geometry" />
        </mxCell>
        <mxCell id="9EL0KqJKeyZ95kQTjrNn-53" value="" style="edgeStyle=orthogonalEdgeStyle;rounded=0;orthogonalLoop=1;jettySize=auto;html=1;entryX=0.5;entryY=0;entryDx=0;entryDy=0;entryPerimeter=0;" edge="1" parent="1" source="9EL0KqJKeyZ95kQTjrNn-10" target="9EL0KqJKeyZ95kQTjrNn-18">
          <mxGeometry relative="1" as="geometry">
            <mxPoint x="555" y="550" as="targetPoint" />
          </mxGeometry>
        </mxCell>
        <mxCell id="9EL0KqJKeyZ95kQTjrNn-63" value="True" style="edgeLabel;html=1;align=center;verticalAlign=middle;resizable=0;points=[];" vertex="1" connectable="0" parent="9EL0KqJKeyZ95kQTjrNn-53">
          <mxGeometry x="-0.5996" relative="1" as="geometry">
            <mxPoint as="offset" />
          </mxGeometry>
        </mxCell>
        <mxCell id="9EL0KqJKeyZ95kQTjrNn-10" value="i &amp;gt;= 0 หรือไม่" style="rhombus;whiteSpace=wrap;html=1;" vertex="1" parent="1">
          <mxGeometry x="655" y="560" width="120" height="100" as="geometry" />
        </mxCell>
        <mxCell id="9EL0KqJKeyZ95kQTjrNn-23" value="" style="edgeStyle=orthogonalEdgeStyle;rounded=0;orthogonalLoop=1;jettySize=auto;html=1;" edge="1" parent="1" source="9EL0KqJKeyZ95kQTjrNn-11" target="9EL0KqJKeyZ95kQTjrNn-5">
          <mxGeometry relative="1" as="geometry" />
        </mxCell>
        <mxCell id="9EL0KqJKeyZ95kQTjrNn-58" value="True" style="edgeLabel;html=1;align=center;verticalAlign=middle;resizable=0;points=[];" vertex="1" connectable="0" parent="9EL0KqJKeyZ95kQTjrNn-23">
          <mxGeometry x="-0.35" y="1" relative="1" as="geometry">
            <mxPoint as="offset" />
          </mxGeometry>
        </mxCell>
        <mxCell id="9EL0KqJKeyZ95kQTjrNn-25" value="" style="edgeStyle=orthogonalEdgeStyle;rounded=0;orthogonalLoop=1;jettySize=auto;html=1;entryX=0.5;entryY=0;entryDx=0;entryDy=0;" edge="1" parent="1" source="9EL0KqJKeyZ95kQTjrNn-11" target="9EL0KqJKeyZ95kQTjrNn-12">
          <mxGeometry relative="1" as="geometry">
            <mxPoint x="720" y="305" as="targetPoint" />
          </mxGeometry>
        </mxCell>
        <mxCell id="9EL0KqJKeyZ95kQTjrNn-57" value="Flase" style="edgeLabel;html=1;align=center;verticalAlign=middle;resizable=0;points=[];" vertex="1" connectable="0" parent="9EL0KqJKeyZ95kQTjrNn-25">
          <mxGeometry x="-0.3406" y="-2" relative="1" as="geometry">
            <mxPoint as="offset" />
          </mxGeometry>
        </mxCell>
        <mxCell id="9EL0KqJKeyZ95kQTjrNn-11" value="&lt;div&gt;ตรวจสอบว่าเป็นตัวเลข&lt;/div&gt;&lt;div&gt;หรือไม่&lt;/div&gt;" style="rhombus;whiteSpace=wrap;html=1;" vertex="1" parent="1">
          <mxGeometry x="358" y="250" width="135" height="110" as="geometry" />
        </mxCell>
        <mxCell id="9EL0KqJKeyZ95kQTjrNn-12" value="&lt;div&gt;Show&lt;/div&gt;&lt;div&gt;&quot;&lt;span lang=&quot;en&quot; class=&quot;Y2IQFc&quot;&gt;Please Enter a Number.&lt;/span&gt;&quot;&lt;/div&gt;" style="rounded=0;whiteSpace=wrap;html=1;" vertex="1" parent="1">
          <mxGeometry x="730" y="360" width="150" height="40" as="geometry" />
        </mxCell>
        <mxCell id="9EL0KqJKeyZ95kQTjrNn-13" value="แสดงค่าเลขคี่" style="rounded=0;whiteSpace=wrap;html=1;" vertex="1" parent="1">
          <mxGeometry x="130" y="680" width="80" height="30" as="geometry" />
        </mxCell>
        <mxCell id="9EL0KqJKeyZ95kQTjrNn-43" value="" style="edgeStyle=orthogonalEdgeStyle;rounded=0;orthogonalLoop=1;jettySize=auto;html=1;entryX=0;entryY=0.5;entryDx=0;entryDy=0;entryPerimeter=0;" edge="1" parent="1" source="9EL0KqJKeyZ95kQTjrNn-15" target="9EL0KqJKeyZ95kQTjrNn-70">
          <mxGeometry relative="1" as="geometry">
            <mxPoint x="130" y="520" as="targetPoint" />
            <Array as="points">
              <mxPoint x="100" y="765" />
              <mxPoint x="100" y="510" />
            </Array>
          </mxGeometry>
        </mxCell>
        <mxCell id="9EL0KqJKeyZ95kQTjrNn-15" value="i += 2" style="rounded=0;whiteSpace=wrap;html=1;" vertex="1" parent="1">
          <mxGeometry x="130" y="750" width="80" height="30" as="geometry" />
        </mxCell>
        <mxCell id="9EL0KqJKeyZ95kQTjrNn-38" value="" style="edgeStyle=orthogonalEdgeStyle;rounded=0;orthogonalLoop=1;jettySize=auto;html=1;" edge="1" parent="1" source="9EL0KqJKeyZ95kQTjrNn-16" target="9EL0KqJKeyZ95kQTjrNn-17">
          <mxGeometry relative="1" as="geometry" />
        </mxCell>
        <mxCell id="9EL0KqJKeyZ95kQTjrNn-16" value="แสดงค่าเลขคู่" style="rounded=0;whiteSpace=wrap;html=1;" vertex="1" parent="1">
          <mxGeometry x="675" y="680" width="80" height="30" as="geometry" />
        </mxCell>
        <mxCell id="9EL0KqJKeyZ95kQTjrNn-17" value="i -=2" style="rounded=0;whiteSpace=wrap;html=1;" vertex="1" parent="1">
          <mxGeometry x="680" y="750" width="70" height="30" as="geometry" />
        </mxCell>
        <mxCell id="9EL0KqJKeyZ95kQTjrNn-56" value="" style="edgeStyle=orthogonalEdgeStyle;rounded=0;orthogonalLoop=1;jettySize=auto;html=1;" edge="1" parent="1" source="9EL0KqJKeyZ95kQTjrNn-18" target="9EL0KqJKeyZ95kQTjrNn-26">
          <mxGeometry relative="1" as="geometry" />
        </mxCell>
        <mxCell id="9EL0KqJKeyZ95kQTjrNn-18" value="" style="verticalLabelPosition=bottom;verticalAlign=top;html=1;shape=mxgraph.flowchart.on-page_reference;" vertex="1" parent="1">
          <mxGeometry x="415.5" y="790" width="20" height="20" as="geometry" />
        </mxCell>
        <mxCell id="9EL0KqJKeyZ95kQTjrNn-26" value="STOP" style="strokeWidth=2;html=1;shape=mxgraph.flowchart.terminator;whiteSpace=wrap;" vertex="1" parent="1">
          <mxGeometry x="380" y="860" width="90" height="30" as="geometry" />
        </mxCell>
        <mxCell id="9EL0KqJKeyZ95kQTjrNn-29" value="" style="edgeStyle=orthogonalEdgeStyle;rounded=0;orthogonalLoop=1;jettySize=auto;html=1;" edge="1" parent="1">
          <mxGeometry relative="1" as="geometry">
            <mxPoint x="169.5" y="710" as="sourcePoint" />
            <mxPoint x="169.5" y="750" as="targetPoint" />
          </mxGeometry>
        </mxCell>
        <mxCell id="9EL0KqJKeyZ95kQTjrNn-35" value="" style="edgeStyle=orthogonalEdgeStyle;rounded=0;orthogonalLoop=1;jettySize=auto;html=1;" edge="1" parent="1">
          <mxGeometry relative="1" as="geometry">
            <mxPoint x="714.5" y="660" as="sourcePoint" />
            <mxPoint x="714.5" y="680" as="targetPoint" />
          </mxGeometry>
        </mxCell>
        <mxCell id="9EL0KqJKeyZ95kQTjrNn-37" value="" style="edgeStyle=orthogonalEdgeStyle;rounded=0;orthogonalLoop=1;jettySize=auto;html=1;" edge="1" parent="1">
          <mxGeometry relative="1" as="geometry">
            <mxPoint x="169.5" y="660" as="sourcePoint" />
            <mxPoint x="169.5" y="680" as="targetPoint" />
          </mxGeometry>
        </mxCell>
        <mxCell id="9EL0KqJKeyZ95kQTjrNn-47" value="" style="edgeStyle=orthogonalEdgeStyle;rounded=0;orthogonalLoop=1;jettySize=auto;html=1;exitX=1;exitY=0.5;exitDx=0;exitDy=0;entryX=0;entryY=0.5;entryDx=0;entryDy=0;" edge="1" parent="1" source="9EL0KqJKeyZ95kQTjrNn-5" target="9EL0KqJKeyZ95kQTjrNn-68">
          <mxGeometry relative="1" as="geometry">
            <mxPoint x="558" y="550" as="sourcePoint" />
            <mxPoint x="660" y="455" as="targetPoint" />
          </mxGeometry>
        </mxCell>
        <mxCell id="9EL0KqJKeyZ95kQTjrNn-60" value="คู่" style="edgeLabel;html=1;align=center;verticalAlign=middle;resizable=0;points=[];" vertex="1" connectable="0" parent="9EL0KqJKeyZ95kQTjrNn-47">
          <mxGeometry x="-0.1226" y="-2" relative="1" as="geometry">
            <mxPoint as="offset" />
          </mxGeometry>
        </mxCell>
        <mxCell id="9EL0KqJKeyZ95kQTjrNn-49" value="" style="edgeStyle=orthogonalEdgeStyle;rounded=0;orthogonalLoop=1;jettySize=auto;html=1;exitX=1;exitY=0.5;exitDx=0;exitDy=0;entryX=1;entryY=0.5;entryDx=0;entryDy=0;entryPerimeter=0;" edge="1" parent="1" source="9EL0KqJKeyZ95kQTjrNn-17" target="9EL0KqJKeyZ95kQTjrNn-74">
          <mxGeometry relative="1" as="geometry">
            <mxPoint x="645" y="730" as="sourcePoint" />
            <mxPoint x="770" y="455" as="targetPoint" />
            <Array as="points">
              <mxPoint x="790" y="765" />
              <mxPoint x="790" y="510" />
            </Array>
          </mxGeometry>
        </mxCell>
        <mxCell id="9EL0KqJKeyZ95kQTjrNn-55" value="" style="edgeStyle=orthogonalEdgeStyle;rounded=0;orthogonalLoop=1;jettySize=auto;html=1;entryX=1;entryY=0.5;entryDx=0;entryDy=0;entryPerimeter=0;exitX=0.5;exitY=1;exitDx=0;exitDy=0;" edge="1" parent="1" source="9EL0KqJKeyZ95kQTjrNn-12" target="9EL0KqJKeyZ95kQTjrNn-18">
          <mxGeometry relative="1" as="geometry">
            <mxPoint x="790" y="760" as="sourcePoint" />
            <mxPoint x="480" y="940" as="targetPoint" />
          </mxGeometry>
        </mxCell>
        <mxCell id="9EL0KqJKeyZ95kQTjrNn-61" value="Flase" style="edgeLabel;html=1;align=center;verticalAlign=middle;resizable=0;points=[];" vertex="1" connectable="0" parent="1">
          <mxGeometry x="280" y="445" as="geometry">
            <mxPoint x="-88" y="216" as="offset" />
          </mxGeometry>
        </mxCell>
        <mxCell id="9EL0KqJKeyZ95kQTjrNn-64" value="Flase" style="edgeLabel;html=1;align=center;verticalAlign=middle;resizable=0;points=[];" vertex="1" connectable="0" parent="1">
          <mxGeometry x="775" y="445" as="geometry">
            <mxPoint x="-88" y="216" as="offset" />
          </mxGeometry>
        </mxCell>
        <mxCell id="9EL0KqJKeyZ95kQTjrNn-73" value="" style="edgeStyle=orthogonalEdgeStyle;rounded=0;orthogonalLoop=1;jettySize=auto;html=1;" edge="1" parent="1" source="9EL0KqJKeyZ95kQTjrNn-65" target="9EL0KqJKeyZ95kQTjrNn-70">
          <mxGeometry relative="1" as="geometry" />
        </mxCell>
        <mxCell id="9EL0KqJKeyZ95kQTjrNn-65" value="i = 1" style="rounded=0;whiteSpace=wrap;html=1;" vertex="1" parent="1">
          <mxGeometry x="140" y="445" width="60" height="20" as="geometry" />
        </mxCell>
        <mxCell id="9EL0KqJKeyZ95kQTjrNn-75" value="" style="edgeStyle=orthogonalEdgeStyle;rounded=0;orthogonalLoop=1;jettySize=auto;html=1;" edge="1" parent="1" source="9EL0KqJKeyZ95kQTjrNn-68" target="9EL0KqJKeyZ95kQTjrNn-74">
          <mxGeometry relative="1" as="geometry" />
        </mxCell>
        <mxCell id="9EL0KqJKeyZ95kQTjrNn-68" value="i = N" style="rounded=0;whiteSpace=wrap;html=1;" vertex="1" parent="1">
          <mxGeometry x="685" y="445" width="60" height="20" as="geometry" />
        </mxCell>
        <mxCell id="9EL0KqJKeyZ95kQTjrNn-72" value="" style="edgeStyle=orthogonalEdgeStyle;rounded=0;orthogonalLoop=1;jettySize=auto;html=1;" edge="1" parent="1" source="9EL0KqJKeyZ95kQTjrNn-70" target="9EL0KqJKeyZ95kQTjrNn-7">
          <mxGeometry relative="1" as="geometry" />
        </mxCell>
        <mxCell id="9EL0KqJKeyZ95kQTjrNn-70" value="" style="verticalLabelPosition=bottom;verticalAlign=top;html=1;shape=mxgraph.flowchart.on-page_reference;" vertex="1" parent="1">
          <mxGeometry x="160" y="500" width="20" height="20" as="geometry" />
        </mxCell>
        <mxCell id="9EL0KqJKeyZ95kQTjrNn-76" value="" style="edgeStyle=orthogonalEdgeStyle;rounded=0;orthogonalLoop=1;jettySize=auto;html=1;" edge="1" parent="1" source="9EL0KqJKeyZ95kQTjrNn-74" target="9EL0KqJKeyZ95kQTjrNn-10">
          <mxGeometry relative="1" as="geometry" />
        </mxCell>
        <mxCell id="9EL0KqJKeyZ95kQTjrNn-74" value="" style="verticalLabelPosition=bottom;verticalAlign=top;html=1;shape=mxgraph.flowchart.on-page_reference;" vertex="1" parent="1">
          <mxGeometry x="705" y="500" width="20" height="20" as="geometry" />
        </mxCell>
      </root>
    </mxGraphModel>
  </diagram>
</mxfile>
